<svg width="200" height="200" viewBox="0 0 200 200" fill="none" xmlns="http://www.w3.org/2000/svg">
<rect width="200" height="200" rx="30" fill="#DAA520"/>
<path d="M64 162.36H73.6C75.56 162.36 76.96 162.8 77.8 163.68C78.66 164.56 79.09 165.85 79.09 167.55C79.09 168.93 78.81 170.03 78.25 170.85C77.69 171.65 76.79 172.17 75.55 172.41V172.53C76.97 172.79 77.95 173.34 78.49 174.18C79.03 175.02 79.3 176.15 79.3 177.57C79.3 179.25 78.88 180.58 78.04 181.56C77.22 182.52 75.71 183 73.51 183H64V162.36ZM72.76 171.36C74.04 171.36 74.98 171.09 75.58 170.55C76.2 170.01 76.51 169.18 76.51 168.06C76.51 167.22 76.4 166.57 76.18 166.11C75.96 165.65 75.58 165.31 75.04 165.09C74.52 164.87 73.76 164.76 72.76 164.76H66.58V171.36H72.76ZM72.88 180.6C73.88 180.6 74.65 180.49 75.19 180.27C75.75 180.05 76.14 179.7 76.36 179.22C76.6 178.72 76.72 178.04 76.72 177.18C76.72 175.94 76.43 175.06 75.85 174.54C75.27 174.02 74.28 173.76 72.88 173.76H66.58V180.6H72.88ZM88.1392 183.24C86.3792 183.24 85.0992 182.92 84.2992 182.28C83.4992 181.62 83.0992 180.46 83.0992 178.8C83.0992 177.62 83.2392 176.7 83.5192 176.04C83.7992 175.38 84.2692 174.9 84.9292 174.6C85.6092 174.3 86.5592 174.15 87.7792 174.15C88.3592 174.15 90.2692 174.2 93.5092 174.3V173.4C93.5092 172.2 93.3892 171.35 93.1492 170.85C92.9292 170.35 92.5092 170.03 91.8892 169.89C91.2892 169.75 90.2592 169.68 88.7992 169.68C88.1592 169.68 87.3492 169.72 86.3692 169.8C85.4092 169.86 84.6592 169.93 84.1192 170.01V167.88C85.6992 167.6 87.5492 167.46 89.6692 167.46C91.4692 167.46 92.8092 167.65 93.6892 168.03C94.5892 168.39 95.1892 168.99 95.4892 169.83C95.7892 170.65 95.9392 171.85 95.9392 173.43V183H93.7492L93.6292 180.87H93.4492C93.0292 181.83 92.3492 182.47 91.4092 182.79C90.4892 183.09 89.3992 183.24 88.1392 183.24ZM89.0692 181.05C90.0692 181.05 90.8792 180.96 91.4992 180.78C92.1392 180.6 92.5992 180.25 92.8792 179.73C93.2992 179.01 93.5092 178.01 93.5092 176.73V176.04H88.4092C87.5692 176.04 86.9492 176.1 86.5492 176.22C86.1692 176.34 85.8992 176.58 85.7392 176.94C85.5792 177.28 85.4992 177.82 85.4992 178.56C85.4992 179.28 85.5892 179.81 85.7692 180.15C85.9492 180.49 86.2792 180.73 86.7592 180.87C87.2592 180.99 88.0292 181.05 89.0692 181.05ZM108.669 183.24C107.429 183.24 106.379 183.08 105.519 182.76C104.659 182.42 104.029 181.79 103.629 180.87H103.449L103.329 183H101.169V160.71H103.599V169.62H103.749C104.149 168.82 104.749 168.26 105.549 167.94C106.369 167.62 107.429 167.46 108.729 167.46C110.229 167.46 111.369 167.69 112.149 168.15C112.949 168.61 113.509 169.4 113.829 170.52C114.169 171.62 114.339 173.23 114.339 175.35C114.339 177.47 114.169 179.09 113.829 180.21C113.509 181.31 112.949 182.09 112.149 182.55C111.349 183.01 110.189 183.24 108.669 183.24ZM107.709 180.9C109.009 180.9 109.929 180.78 110.469 180.54C111.029 180.3 111.399 179.81 111.579 179.07C111.779 178.33 111.879 177.09 111.879 175.35C111.879 173.63 111.779 172.41 111.579 171.69C111.399 170.95 111.029 170.46 110.469 170.22C109.929 169.96 109.009 169.83 107.709 169.83C106.729 169.83 105.949 169.95 105.369 170.19C104.789 170.43 104.379 170.8 104.139 171.3C103.919 171.74 103.769 172.27 103.689 172.89C103.629 173.51 103.599 174.33 103.599 175.35C103.599 176.41 103.629 177.24 103.689 177.84C103.749 178.44 103.889 178.96 104.109 179.4C104.369 179.92 104.789 180.3 105.369 180.54C105.949 180.78 106.729 180.9 107.709 180.9ZM122.973 183.24C121.213 183.24 119.933 182.92 119.133 182.28C118.333 181.62 117.933 180.46 117.933 178.8C117.933 177.62 118.073 176.7 118.353 176.04C118.633 175.38 119.103 174.9 119.763 174.6C120.443 174.3 121.393 174.15 122.613 174.15C123.193 174.15 125.103 174.2 128.343 174.3V173.4C128.343 172.2 128.223 171.35 127.983 170.85C127.763 170.35 127.343 170.03 126.723 169.89C126.123 169.75 125.093 169.68 123.633 169.68C122.993 169.68 122.183 169.72 121.203 169.8C120.243 169.86 119.493 169.93 118.953 170.01V167.88C120.533 167.6 122.383 167.46 124.503 167.46C126.303 167.46 127.643 167.65 128.523 168.03C129.423 168.39 130.023 168.99 130.323 169.83C130.623 170.65 130.773 171.85 130.773 173.43V183H128.583L128.463 180.87H128.283C127.863 181.83 127.183 182.47 126.243 182.79C125.323 183.09 124.233 183.24 122.973 183.24ZM123.903 181.05C124.903 181.05 125.713 180.96 126.333 180.78C126.973 180.6 127.433 180.25 127.713 179.73C128.133 179.01 128.343 178.01 128.343 176.73V176.04H123.243C122.403 176.04 121.783 176.1 121.383 176.22C121.003 176.34 120.733 176.58 120.573 176.94C120.413 177.28 120.333 177.82 120.333 178.56C120.333 179.28 120.423 179.81 120.603 180.15C120.783 180.49 121.113 180.73 121.593 180.87C122.093 180.99 122.863 181.05 123.903 181.05ZM123.513 164.94V164.79L126.543 160.71H129.183V160.86L125.313 164.94H123.513Z" fill="white"/>
<path d="M147.446 102.771L152.102 86.6578V77.1081C150.102 55.7873 130.491 39 106.881 39H99.0169V77.1081H70.5473L66.1619 59.2409C65.7755 57.6229 64.8037 56.1747 63.4067 55.1344C62.0096 54.0941 60.2705 53.5238 58.4754 53.5174H42V60.7761H58.4754L68.4227 101.305C64.8731 102.172 61.6578 103.941 59.141 106.408C56.6242 108.876 54.9065 111.946 54.1825 115.268C53.4586 118.591 53.7572 122.034 55.0446 125.208C56.3321 128.383 58.5569 131.16 61.4669 133.227C64.377 135.294 67.8561 136.568 71.5101 136.904C75.1641 137.239 78.8469 136.624 82.1414 135.127C85.4359 133.63 88.2103 131.311 90.1504 128.434C92.0905 125.556 93.1188 122.235 93.1186 118.846C93.1186 118.233 93.0859 117.628 93.0203 117.031H118.776C118.712 117.628 118.679 118.233 118.678 118.846C118.676 122.064 119.602 125.224 121.36 128.003C123.118 130.782 125.645 133.08 128.682 134.66C131.719 136.241 135.157 137.048 138.643 136.998C142.129 136.948 145.539 136.043 148.521 134.377C151.504 132.71 153.953 130.342 155.616 127.514C157.28 124.686 158.1 121.5 157.99 118.284C157.881 115.067 156.847 111.936 154.994 109.21C153.141 106.484 150.536 104.261 147.446 102.771ZM106.881 46.2587C126.152 46.2587 142.061 59.7957 144.032 77.1081H106.881V46.2587ZM73.4576 129.734C71.1245 129.734 68.8437 129.095 66.9038 127.899C64.9638 126.702 63.4518 125.002 62.559 123.012C61.6661 121.023 61.4325 118.834 61.8877 116.721C62.3429 114.609 63.4664 112.669 65.1162 111.147C66.7659 109.624 68.8679 108.587 71.1562 108.167C73.4445 107.747 75.8164 107.962 77.972 108.786C80.1275 109.61 81.9699 111.006 83.2661 112.797C84.5624 114.587 85.2542 116.692 85.2542 118.846C85.2507 121.732 84.0067 124.5 81.7951 126.541C79.5836 128.582 76.5852 129.73 73.4576 129.734ZM121.323 109.772H90.4735C88.9955 107.414 86.9623 105.393 84.5242 103.857C82.086 102.322 79.3053 101.312 76.3874 100.901L72.3291 84.3668H144.237V85.7051L139.887 100.76C139.372 100.721 138.856 100.7 138.339 100.698C134.89 100.701 131.502 101.54 128.515 103.133C125.528 104.726 123.048 107.015 121.323 109.772ZM138.339 129.734C136.006 129.734 133.725 129.095 131.785 127.899C129.845 126.702 128.333 125.002 127.44 123.012C126.547 121.023 126.314 118.834 126.769 116.721C127.224 114.609 128.348 112.669 129.998 111.147C131.647 109.624 133.749 108.587 136.038 108.167C138.326 107.747 140.698 107.962 142.853 108.786C145.009 109.61 146.851 111.006 148.148 112.797C149.444 114.587 150.136 116.692 150.136 118.846C150.132 121.732 148.888 124.5 146.676 126.541C144.465 128.582 141.467 129.73 138.339 129.734Z" fill="white"/>
</svg>
