<svg width="49" height="54" viewBox="0 0 49 54" fill="none" xmlns="http://www.w3.org/2000/svg">
<path d="M11.3337 26.6667H16.667V32H11.3337V26.6667ZM48.667 10.6667V48C48.667 49.4145 48.1051 50.771 47.1049 51.7712C46.1047 52.7714 44.7481 53.3333 43.3337 53.3333H6.00033C4.58584 53.3333 3.22928 52.7714 2.22909 51.7712C1.2289 50.771 0.666992 49.4145 0.666992 48V10.6667C0.666992 9.25218 1.2289 7.89562 2.22909 6.89543C3.22928 5.89524 4.58584 5.33333 6.00033 5.33333H8.66699V0H14.0003V5.33333H35.3337V0H40.667V5.33333H43.3337C44.7481 5.33333 46.1047 5.89524 47.1049 6.89543C48.1051 7.89562 48.667 9.25218 48.667 10.6667ZM6.00033 16H43.3337V10.6667H6.00033V16ZM43.3337 48V21.3333H6.00033V48H43.3337ZM32.667 32V26.6667H38.0003V32H32.667ZM22.0003 32V26.6667H27.3337V32H22.0003ZM11.3337 37.3333H16.667V42.6667H11.3337V37.3333ZM32.667 42.6667V37.3333H38.0003V42.6667H32.667ZM22.0003 42.6667V37.3333H27.3337V42.6667H22.0003Z" fill="#3B4664"/>
</svg>
