<svg width="28" height="48" viewBox="0 0 28 48" fill="none" xmlns="http://www.w3.org/2000/svg">
<path d="M0.666992 32H6.00033C6.00033 34.88 9.65366 37.3333 14.0003 37.3333C18.347 37.3333 22.0003 34.88 22.0003 32C22.0003 29.0667 19.227 28 13.3603 26.5867C7.70699 25.1733 0.666992 23.4133 0.666992 16C0.666992 11.2267 4.58699 7.17333 10.0003 5.81333V0H18.0003V5.81333C23.4137 7.17333 27.3337 11.2267 27.3337 16H22.0003C22.0003 13.12 18.347 10.6667 14.0003 10.6667C9.65366 10.6667 6.00033 13.12 6.00033 16C6.00033 18.9333 8.77366 20 14.6403 21.4133C20.2937 22.8267 27.3337 24.5867 27.3337 32C27.3337 36.7733 23.4137 40.8267 18.0003 42.1867V48H10.0003V42.1867C4.58699 40.8267 0.666992 36.7733 0.666992 32Z" fill="#3B4664"/>
</svg>
