<svg width="200" height="200" viewBox="0 0 200 200" fill="none" xmlns="http://www.w3.org/2000/svg">
<rect width="200" height="200" rx="30" fill="#DAA520"/>
<path d="M43.54 182.85C42.92 182.97 42.14 183.06 41.2 183.12C40.28 183.2 39.42 183.24 38.62 183.24C36.14 183.24 34.33 182.97 33.19 182.43C32.05 181.89 31.28 180.91 30.88 179.49C30.5 178.05 30.31 175.78 30.31 172.68C30.31 169.6 30.5 167.34 30.88 165.9C31.28 164.46 32.05 163.47 33.19 162.93C34.33 162.39 36.14 162.12 38.62 162.12C39.44 162.12 40.3 162.16 41.2 162.24C42.1 162.32 42.84 162.43 43.42 162.57V164.82C41.92 164.62 40.54 164.52 39.28 164.52C37.18 164.52 35.71 164.68 34.87 165C34.05 165.32 33.51 166.01 33.25 167.07C32.99 168.13 32.86 170 32.86 172.68C32.86 175.36 32.99 177.23 33.25 178.29C33.51 179.35 34.05 180.04 34.87 180.36C35.71 180.68 37.18 180.84 39.28 180.84C40.82 180.84 42.24 180.74 43.54 180.54V182.85ZM53.9259 183.24C51.7859 183.24 50.2559 183.03 49.3359 182.61C48.4159 182.17 47.8259 181.44 47.5659 180.42C47.3259 179.38 47.2059 177.69 47.2059 175.35C47.2059 173.01 47.3259 171.33 47.5659 170.31C47.8259 169.27 48.4159 168.54 49.3359 168.12C50.2559 167.68 51.7859 167.46 53.9259 167.46C56.0459 167.46 57.5659 167.68 58.4859 168.12C59.4059 168.54 59.9859 169.27 60.2259 170.31C60.4859 171.33 60.6159 173.01 60.6159 175.35C60.6159 177.69 60.4859 179.38 60.2259 180.42C59.9859 181.44 59.4059 182.17 58.4859 182.61C57.5659 183.03 56.0459 183.24 53.9259 183.24ZM53.9259 181.02C55.3859 181.02 56.3959 180.89 56.9559 180.63C57.5159 180.37 57.8559 179.9 57.9759 179.22C58.1159 178.52 58.1859 177.23 58.1859 175.35C58.1859 173.47 58.1159 172.19 57.9759 171.51C57.8559 170.81 57.5159 170.33 56.9559 170.07C56.3959 169.81 55.3859 169.68 53.9259 169.68C52.4659 169.68 51.4459 169.81 50.8659 170.07C50.3059 170.33 49.9559 170.81 49.8159 171.51C49.6959 172.19 49.6359 173.47 49.6359 175.35C49.6359 177.23 49.6959 178.52 49.8159 179.22C49.9559 179.9 50.3059 180.37 50.8659 180.63C51.4459 180.89 52.4659 181.02 53.9259 181.02ZM64.1303 183V180.93L73.0403 169.92H64.4903V167.7H76.1903V169.77L67.3103 180.78H76.2503V183H64.1303ZM80.3247 163.5V160.71H82.9047V163.5H80.3247ZM80.4147 183V167.7H82.8447V183H80.4147ZM98.3819 174.39C98.3819 172.97 98.2919 171.96 98.1119 171.36C97.9319 170.74 97.5919 170.33 97.0919 170.13C96.5919 169.93 95.7519 169.83 94.5719 169.83C93.3119 169.83 92.3819 170.03 91.7819 170.43C91.2019 170.83 90.8319 171.38 90.6719 172.08C90.5319 172.78 90.4619 173.79 90.4619 175.11V183H88.0319V167.7H90.1919L90.3119 169.86H90.4919C90.8319 169.08 91.3919 168.49 92.1719 168.09C92.9519 167.67 94.0819 167.46 95.5619 167.46C97.0419 167.46 98.1519 167.67 98.8919 168.09C99.6519 168.51 100.162 169.14 100.422 169.98C100.682 170.8 100.812 171.95 100.812 173.43V183H98.3819V174.39ZM116.341 174.39C116.341 172.97 116.251 171.96 116.071 171.36C115.891 170.74 115.551 170.33 115.051 170.13C114.551 169.93 113.711 169.83 112.531 169.83C111.271 169.83 110.341 170.03 109.741 170.43C109.161 170.83 108.791 171.38 108.631 172.08C108.491 172.78 108.421 173.79 108.421 175.11V183H105.991V160.71H108.421V169.71H108.571C108.891 168.99 109.431 168.44 110.191 168.06C110.971 167.68 112.081 167.49 113.521 167.49C115.001 167.49 116.111 167.7 116.851 168.12C117.611 168.52 118.121 169.14 118.381 169.98C118.641 170.8 118.771 171.95 118.771 173.43V183H116.341V174.39ZM136.19 176.22H125.72C125.72 177.68 125.82 178.72 126.02 179.34C126.22 179.96 126.65 180.4 127.31 180.66C127.99 180.9 129.12 181.02 130.7 181.02C132.24 181.02 133.87 180.91 135.59 180.69V182.82C134.95 182.94 134.12 183.04 133.1 183.12C132.08 183.2 131.11 183.24 130.19 183.24C128.13 183.24 126.61 183 125.63 182.52C124.67 182.04 124.04 181.27 123.74 180.21C123.44 179.15 123.29 177.54 123.29 175.38C123.29 173.26 123.42 171.67 123.68 170.61C123.96 169.55 124.57 168.76 125.51 168.24C126.47 167.72 127.98 167.46 130.04 167.46C131.96 167.46 133.35 167.72 134.21 168.24C135.07 168.74 135.61 169.51 135.83 170.55C136.07 171.57 136.19 173.17 136.19 175.35V176.22ZM129.98 169.68C128.68 169.68 127.74 169.8 127.16 170.04C126.6 170.26 126.22 170.69 126.02 171.33C125.84 171.95 125.74 172.96 125.72 174.36H133.85V174.12C133.85 172.8 133.73 171.83 133.49 171.21C133.27 170.59 132.9 170.18 132.38 169.98C131.86 169.78 131.06 169.68 129.98 169.68ZM140.647 163.5V160.71H143.227V163.5H140.647ZM140.737 183V167.7H143.167V183H140.737ZM148.354 167.7H150.514L150.634 170.61H150.814C151.174 169.41 151.774 168.59 152.614 168.15C153.454 167.69 154.554 167.46 155.914 167.46V170.07C154.534 170.07 153.474 170.28 152.734 170.7C151.994 171.12 151.484 171.77 151.204 172.65C150.924 173.51 150.784 174.68 150.784 176.16V183H148.354V167.7ZM163.157 183.24C161.397 183.24 160.117 182.92 159.317 182.28C158.517 181.62 158.117 180.46 158.117 178.8C158.117 177.62 158.257 176.7 158.537 176.04C158.817 175.38 159.287 174.9 159.947 174.6C160.627 174.3 161.577 174.15 162.797 174.15C163.377 174.15 165.287 174.2 168.527 174.3V173.4C168.527 172.2 168.407 171.35 168.167 170.85C167.947 170.35 167.527 170.03 166.907 169.89C166.307 169.75 165.277 169.68 163.817 169.68C163.177 169.68 162.367 169.72 161.387 169.8C160.427 169.86 159.677 169.93 159.137 170.01V167.88C160.717 167.6 162.567 167.46 164.687 167.46C166.487 167.46 167.827 167.65 168.707 168.03C169.607 168.39 170.207 168.99 170.507 169.83C170.807 170.65 170.957 171.85 170.957 173.43V183H168.767L168.647 180.87H168.467C168.047 181.83 167.367 182.47 166.427 182.79C165.507 183.09 164.417 183.24 163.157 183.24ZM164.087 181.05C165.087 181.05 165.897 180.96 166.517 180.78C167.157 180.6 167.617 180.25 167.897 179.73C168.317 179.01 168.527 178.01 168.527 176.73V176.04H163.427C162.587 176.04 161.967 176.1 161.567 176.22C161.187 176.34 160.917 176.58 160.757 176.94C160.597 177.28 160.517 177.82 160.517 178.56C160.517 179.28 160.607 179.81 160.787 180.15C160.967 180.49 161.297 180.73 161.777 180.87C162.277 180.99 163.047 181.05 164.087 181.05Z" fill="white"/>
<path d="M82.2188 60.2692V45.6538C82.2188 44.6848 82.604 43.7554 83.2896 43.0702C83.9753 42.385 84.9053 42 85.875 42C86.8447 42 87.7747 42.385 88.4604 43.0702C89.146 43.7554 89.5312 44.6848 89.5312 45.6538V60.2692C89.5312 61.2383 89.146 62.1677 88.4604 62.8529C87.7747 63.5381 86.8447 63.9231 85.875 63.9231C84.9053 63.9231 83.9753 63.5381 83.2896 62.8529C82.604 62.1677 82.2188 61.2383 82.2188 60.2692ZM100.5 63.9231C101.47 63.9231 102.4 63.5381 103.085 62.8529C103.771 62.1677 104.156 61.2383 104.156 60.2692V45.6538C104.156 44.6848 103.771 43.7554 103.085 43.0702C102.4 42.385 101.47 42 100.5 42C99.5303 42 98.6003 42.385 97.9146 43.0702C97.229 43.7554 96.8438 44.6848 96.8438 45.6538V60.2692C96.8438 61.2383 97.229 62.1677 97.9146 62.8529C98.6003 63.5381 99.5303 63.9231 100.5 63.9231ZM115.125 63.9231C116.095 63.9231 117.025 63.5381 117.71 62.8529C118.396 62.1677 118.781 61.2383 118.781 60.2692V45.6538C118.781 44.6848 118.396 43.7554 117.71 43.0702C117.025 42.385 116.095 42 115.125 42C114.155 42 113.225 42.385 112.54 43.0702C111.854 43.7554 111.469 44.6848 111.469 45.6538V60.2692C111.469 61.2383 111.854 62.1677 112.54 62.8529C113.225 63.5381 114.155 63.9231 115.125 63.9231ZM157.537 85.1154L144.375 94.9808V122.385C144.371 126.26 142.828 129.974 140.087 132.714C137.345 135.454 133.627 136.996 129.75 137H71.25C67.3726 136.996 63.6552 135.454 60.9134 132.714C58.1716 129.974 56.6294 126.26 56.625 122.385V94.9808L43.4625 85.1154C42.6868 84.534 42.1739 83.6684 42.0368 82.709C41.8996 81.7497 42.1494 80.7752 42.7313 80C43.3131 79.2248 44.1792 78.7122 45.1392 78.5752C46.0991 78.4381 47.0743 78.6878 47.85 79.2692L56.625 85.8462V78.5385C56.6272 76.601 57.3983 74.7435 58.7692 73.3735C60.1401 72.0036 61.9988 71.2329 63.9375 71.2308H137.062C139.001 71.2329 140.86 72.0036 142.231 73.3735C143.602 74.7435 144.373 76.601 144.375 78.5385V85.8462L153.15 79.2692C153.926 78.6878 154.901 78.4381 155.861 78.5752C156.821 78.7122 157.687 79.2248 158.269 80C158.851 80.7752 159.1 81.7497 158.963 82.709C158.826 83.6684 158.313 84.534 157.537 85.1154ZM137.062 78.5385H63.9329L63.9375 122.385C63.9397 124.322 64.7108 126.18 66.0817 127.55C67.4526 128.92 69.3113 129.69 71.25 129.692H129.75C131.689 129.69 133.547 128.92 134.918 127.55C136.289 126.18 137.06 124.322 137.062 122.385V78.5385Z" fill="white"/>
</svg>
