<svg width="27" height="48" viewBox="0 0 27 48" fill="none" xmlns="http://www.w3.org/2000/svg">
<path d="M0 32H5.33333C5.33333 34.88 8.98667 37.3333 13.3333 37.3333C17.68 37.3333 21.3333 34.88 21.3333 32C21.3333 29.0667 18.56 28 12.6933 26.5867C7.04 25.1733 0 23.4133 0 16C0 11.2267 3.92 7.17333 9.33333 5.81333V0H17.3333V5.81333C22.7467 7.17333 26.6667 11.2267 26.6667 16H21.3333C21.3333 13.12 17.68 10.6667 13.3333 10.6667C8.98667 10.6667 5.33333 13.12 5.33333 16C5.33333 18.9333 8.10667 20 13.9733 21.4133C19.6267 22.8267 26.6667 24.5867 26.6667 32C26.6667 36.7733 22.7467 40.8267 17.3333 42.1867V48H9.33333V42.1867C3.92 40.8267 0 36.7733 0 32Z" fill="white"/>
</svg>
