<svg width="200" height="200" viewBox="0 0 200 200" fill="none" xmlns="http://www.w3.org/2000/svg">
<rect width="200" height="200" rx="30" fill="#DAA520"/>
<path fill-rule="evenodd" clip-rule="evenodd" d="M107.131 83.1912L93.1996 90.5959C92.5279 90.9529 91.9332 91.4388 91.4494 92.0257C90.9656 92.6126 90.6021 93.2891 90.3797 94.0165C90.1573 94.7439 90.0804 95.5079 90.1533 96.2651C90.2262 97.0222 90.4476 97.7575 90.8047 98.4291L93.6166 103.72L117.774 90.8739L114.965 85.5861C114.608 84.9141 114.122 84.3191 113.534 83.835C112.947 83.3509 112.271 82.9872 111.543 82.7648C110.815 82.5424 110.051 82.4656 109.293 82.5388C108.536 82.6119 107.8 82.8337 107.129 83.1912H107.131ZM90.4804 85.4847C89.1371 86.1988 87.9477 87.1706 86.98 88.3444C86.0124 89.5182 85.2854 90.8711 84.8406 92.3259C84.3958 93.7807 84.242 95.3088 84.3878 96.8231C84.5337 98.3374 84.9764 99.808 85.6907 101.151L91.2217 111.553L125.607 93.2687L120.076 82.8669C119.362 81.5237 118.39 80.3342 117.216 79.3666C116.042 78.3989 114.689 77.6719 113.235 77.2271C111.78 76.7824 110.252 76.6285 108.737 76.7744C107.223 76.9202 105.752 77.3629 104.409 78.0772L90.4804 85.4847Z" fill="white"/>
<path fill-rule="evenodd" clip-rule="evenodd" d="M121.95 86.394L87.5645 104.675L100.581 137.45L111.429 131.682L102.611 114.252L107.777 111.637L116.543 128.963L141.844 115.512L121.95 86.394Z" fill="white"/>
<path fill-rule="evenodd" clip-rule="evenodd" d="M96.2925 110.959L110.331 103.856L119.042 121.075L133.411 113.435L120.09 93.9406L94.8619 107.357L96.2925 110.957V110.959ZM103.008 127.868L103.576 129.299L103.7 129.235L103.005 127.868H103.008ZM100.581 137.453L87.5645 104.675L121.95 86.3912L141.844 115.512L116.543 128.963L107.777 111.637L102.611 114.252L111.429 131.685L100.581 137.451V137.453Z" fill="white"/>
<path fill-rule="evenodd" clip-rule="evenodd" d="M98.8058 84.338C98.4699 84.5167 98.102 84.6275 97.7232 84.664C97.3445 84.7005 96.9622 84.6619 96.5983 84.5506C96.2345 84.4392 95.8961 84.2573 95.6026 84.0151C95.3091 83.7729 95.0662 83.4752 94.8878 83.1391L63.8097 24.6838C63.6311 24.348 63.5205 23.9804 63.484 23.6018C63.4476 23.2232 63.4861 22.8412 63.5972 22.4775C63.8218 21.743 64.329 21.1278 65.0071 20.7672C65.6853 20.4066 66.4789 20.3302 67.2134 20.5548C67.5771 20.666 67.9153 20.8477 68.2088 21.0896C68.5022 21.3315 68.7452 21.6288 68.9237 21.9646L100.005 80.4199C100.184 80.7557 100.294 81.1234 100.331 81.5021C100.368 81.8807 100.33 82.2629 100.219 82.6268C100.107 82.9906 99.9258 83.329 99.6839 83.6226C99.442 83.9163 99.1446 84.1593 98.8087 84.338H98.8058Z" fill="white"/>
<path fill-rule="evenodd" clip-rule="evenodd" d="M78.376 111.023C78.6682 110.78 79.0056 110.596 79.3687 110.483C79.7319 110.37 80.1137 110.33 80.4925 110.364C80.8712 110.399 81.2394 110.508 81.5761 110.685C81.9128 110.862 82.2114 111.103 82.4548 111.395C82.6982 111.688 82.8816 112.025 82.9946 112.388C83.1076 112.751 83.148 113.133 83.1135 113.512C83.0789 113.89 82.9701 114.259 82.7932 114.595C82.6164 114.932 82.3749 115.231 82.0827 115.474L80.2293 113.25L82.0827 115.474L82.0798 115.477L82.074 115.483L82.0653 115.489L82.0363 115.512L81.9495 115.584L81.6512 115.813C81.3992 116.001 81.0431 116.259 80.5884 116.566C79.6762 117.174 78.3586 117.967 76.6964 118.761C72.3754 120.834 67.647 121.919 62.8543 121.938C62.0863 121.938 61.3497 121.632 60.8067 121.089C60.2636 120.546 59.9585 119.81 59.9585 119.042C59.9585 118.274 60.2636 117.537 60.8067 116.994C61.3497 116.451 62.0863 116.146 62.8543 116.146C66.7853 116.127 70.6629 115.234 74.206 113.531C75.3031 113.011 76.3617 112.414 77.374 111.744C77.7073 111.524 78.0328 111.292 78.3499 111.049L78.3789 111.02V111.023H78.376Z" fill="white"/>
<path fill-rule="evenodd" clip-rule="evenodd" d="M88.4302 126.122C88.6413 126.438 88.788 126.793 88.8619 127.166C88.9359 127.539 88.9356 127.923 88.8611 128.296C88.7866 128.669 88.6394 129.024 88.4278 129.34C88.2162 129.656 87.9445 129.927 87.628 130.138L86.0208 127.729L87.628 130.138L87.6222 130.144L87.6106 130.15L87.5817 130.167L87.4919 130.225C86.9905 130.544 86.4817 130.851 85.9658 131.146C84.9494 131.728 83.5044 132.501 81.7669 133.272C78.3498 134.792 73.5716 136.417 68.6458 136.417C67.8778 136.417 67.1412 136.112 66.5982 135.568C66.0551 135.025 65.75 134.289 65.75 133.521C65.75 132.753 66.0551 132.016 66.5982 131.473C67.1412 130.93 67.8778 130.625 68.6458 130.625C72.4046 130.625 76.3198 129.354 79.4154 127.978C81.0282 127.259 82.5932 126.436 84.1009 125.517C84.2138 125.45 84.2978 125.395 84.3499 125.36L84.4079 125.326L84.4136 125.32L88.4302 126.122ZM88.4302 126.122C88.2191 125.806 87.9478 125.534 87.6318 125.322C87.3157 125.111 86.961 124.963 86.5881 124.889C86.2151 124.814 85.8311 124.814 85.458 124.888C85.0849 124.962 84.73 125.109 84.4136 125.32L88.4302 126.122Z" fill="white"/>
<path d="M52 162.36H58.57C61.43 162.36 63.45 162.62 64.63 163.14C65.81 163.64 66.56 164.55 66.88 165.87C67.2 167.19 67.36 169.46 67.36 172.68C67.36 175.9 67.2 178.17 66.88 179.49C66.56 180.81 65.81 181.73 64.63 182.25C63.45 182.75 61.43 183 58.57 183H52V162.36ZM58.15 180.6C60.49 180.6 62.06 180.48 62.86 180.24C63.68 179.98 64.21 179.36 64.45 178.38C64.69 177.38 64.81 175.48 64.81 172.68C64.81 169.9 64.68 168.01 64.42 167.01C64.18 166.01 63.65 165.39 62.83 165.15C62.03 164.89 60.47 164.76 58.15 164.76H54.58V180.6H58.15ZM72.2036 163.5V160.71H74.7836V163.5H72.2036ZM72.2936 183V167.7H74.7236V183H72.2936ZM83.9908 183.24C82.2308 183.24 80.9508 182.92 80.1508 182.28C79.3508 181.62 78.9508 180.46 78.9508 178.8C78.9508 177.62 79.0908 176.7 79.3708 176.04C79.6508 175.38 80.1208 174.9 80.7808 174.6C81.4608 174.3 82.4108 174.15 83.6308 174.15C84.2108 174.15 86.1208 174.2 89.3608 174.3V173.4C89.3608 172.2 89.2408 171.35 89.0008 170.85C88.7808 170.35 88.3608 170.03 87.7408 169.89C87.1408 169.75 86.1108 169.68 84.6508 169.68C84.0108 169.68 83.2008 169.72 82.2208 169.8C81.2608 169.86 80.5108 169.93 79.9708 170.01V167.88C81.5508 167.6 83.4008 167.46 85.5208 167.46C87.3208 167.46 88.6608 167.65 89.5408 168.03C90.4408 168.39 91.0408 168.99 91.3408 169.83C91.6408 170.65 91.7908 171.85 91.7908 173.43V183H89.6008L89.4808 180.87H89.3008C88.8808 181.83 88.2008 182.47 87.2608 182.79C86.3408 183.09 85.2508 183.24 83.9908 183.24ZM84.9208 181.05C85.9208 181.05 86.7308 180.96 87.3508 180.78C87.9908 180.6 88.4508 180.25 88.7308 179.73C89.1508 179.01 89.3608 178.01 89.3608 176.73V176.04H84.2608C83.4208 176.04 82.8008 176.1 82.4008 176.22C82.0208 176.34 81.7508 176.58 81.5908 176.94C81.4308 177.28 81.3508 177.82 81.3508 178.56C81.3508 179.28 81.4408 179.81 81.6208 180.15C81.8008 180.49 82.1308 180.73 82.6108 180.87C83.1108 180.99 83.8808 181.05 84.9208 181.05ZM97.0202 167.7H99.1802L99.3002 170.61H99.4802C99.8402 169.41 100.44 168.59 101.28 168.15C102.12 167.69 103.22 167.46 104.58 167.46V170.07C103.2 170.07 102.14 170.28 101.4 170.7C100.66 171.12 100.15 171.77 99.8702 172.65C99.5902 173.51 99.4502 174.68 99.4502 176.16V183H97.0202V167.7ZM107.946 163.5V160.71H110.526V163.5H107.946ZM108.036 183V167.7H110.466V183H108.036ZM120.723 183.24C119.903 183.24 118.973 183.2 117.933 183.12C116.893 183.04 115.973 182.95 115.173 182.85V180.69C117.153 180.91 118.963 181.02 120.603 181.02C121.623 181.02 122.373 180.95 122.853 180.81C123.333 180.67 123.643 180.45 123.783 180.15C123.943 179.83 124.023 179.36 124.023 178.74C124.023 178.12 123.963 177.68 123.843 177.42C123.743 177.14 123.573 176.95 123.333 176.85C123.093 176.75 122.673 176.67 122.073 176.61L118.083 176.16C117.163 176.06 116.453 175.85 115.953 175.53C115.473 175.21 115.143 174.77 114.963 174.21C114.783 173.65 114.693 172.9 114.693 171.96C114.693 170.66 114.923 169.69 115.383 169.05C115.863 168.39 116.513 167.96 117.333 167.76C118.173 167.56 119.293 167.46 120.693 167.46C121.473 167.46 122.313 167.5 123.213 167.58C124.113 167.66 124.873 167.76 125.493 167.88V170.04C123.933 169.8 122.323 169.68 120.663 169.68C119.743 169.68 119.043 169.73 118.563 169.83C118.083 169.91 117.713 170.11 117.453 170.43C117.193 170.73 117.063 171.21 117.063 171.87C117.063 172.45 117.113 172.87 117.213 173.13C117.313 173.39 117.483 173.57 117.723 173.67C117.963 173.77 118.363 173.85 118.923 173.91L123.063 174.39C123.943 174.49 124.603 174.66 125.043 174.9C125.503 175.12 125.833 175.52 126.033 176.1C126.253 176.68 126.363 177.54 126.363 178.68C126.363 179.94 126.153 180.9 125.733 181.56C125.333 182.22 124.733 182.67 123.933 182.91C123.153 183.13 122.083 183.24 120.723 183.24ZM131.737 183V169.92H128.647V167.7H131.737V163.26H134.167V167.7H137.827V169.92H134.167V183H131.737ZM145.045 183.24C143.285 183.24 142.005 182.92 141.205 182.28C140.405 181.62 140.005 180.46 140.005 178.8C140.005 177.62 140.145 176.7 140.425 176.04C140.705 175.38 141.175 174.9 141.835 174.6C142.515 174.3 143.465 174.15 144.685 174.15C145.265 174.15 147.175 174.2 150.415 174.3V173.4C150.415 172.2 150.295 171.35 150.055 170.85C149.835 170.35 149.415 170.03 148.795 169.89C148.195 169.75 147.165 169.68 145.705 169.68C145.065 169.68 144.255 169.72 143.275 169.8C142.315 169.86 141.565 169.93 141.025 170.01V167.88C142.605 167.6 144.455 167.46 146.575 167.46C148.375 167.46 149.715 167.65 150.595 168.03C151.495 168.39 152.095 168.99 152.395 169.83C152.695 170.65 152.845 171.85 152.845 173.43V183H150.655L150.535 180.87H150.355C149.935 181.83 149.255 182.47 148.315 182.79C147.395 183.09 146.305 183.24 145.045 183.24ZM145.975 181.05C146.975 181.05 147.785 180.96 148.405 180.78C149.045 180.6 149.505 180.25 149.785 179.73C150.205 179.01 150.415 178.01 150.415 176.73V176.04H145.315C144.475 176.04 143.855 176.1 143.455 176.22C143.075 176.34 142.805 176.58 142.645 176.94C142.485 177.28 142.405 177.82 142.405 178.56C142.405 179.28 142.495 179.81 142.675 180.15C142.855 180.49 143.185 180.73 143.665 180.87C144.165 180.99 144.935 181.05 145.975 181.05Z" fill="white"/>
</svg>
