<svg width="54" height="54" viewBox="0 0 54 54" fill="none" xmlns="http://www.w3.org/2000/svg">
<path d="M31.7419 3.54375C30.348 -1.18125 23.652 -1.18125 22.2581 3.54375L21.9206 4.69125C21.7124 5.39863 21.3484 6.05043 20.8554 6.59884C20.3625 7.14725 19.753 7.57838 19.0718 7.86059C18.3905 8.14281 17.6547 8.26896 16.9184 8.22979C16.182 8.19062 15.4637 7.98714 14.8162 7.63425L13.77 7.0605C9.43987 4.70475 4.70475 9.43988 7.06387 13.7666L7.63425 14.8162C9.1395 17.5837 7.71187 21.0296 4.69125 21.9206L3.54375 22.2581C-1.18125 23.652 -1.18125 30.348 3.54375 31.7419L4.69125 32.0794C5.39863 32.2876 6.05043 32.6516 6.59884 33.1446C7.14725 33.6375 7.57838 34.247 7.86059 34.9282C8.14281 35.6095 8.26896 36.3453 8.22979 37.0816C8.19062 37.818 7.98714 38.5363 7.63425 39.1838L7.0605 40.23C4.70475 44.5601 9.43988 49.2952 13.7666 46.9361L14.8162 46.3657C15.4637 46.0129 16.182 45.8094 16.9184 45.7702C17.6547 45.731 18.3905 45.8572 19.0718 46.1394C19.753 46.4216 20.3625 46.8527 20.8554 47.4012C21.3484 47.9496 21.7124 48.6014 21.9206 49.3088L22.2581 50.4562C23.652 55.1812 30.348 55.1812 31.7419 50.4562L32.0794 49.3088C32.2876 48.6014 32.6516 47.9496 33.1446 47.4012C33.6375 46.8527 34.247 46.4216 34.9282 46.1394C35.6095 45.8572 36.3453 45.731 37.0816 45.7702C37.818 45.8094 38.5363 46.0129 39.1838 46.3657L40.23 46.9395C44.5601 49.2952 49.2952 44.5601 46.9361 40.2334L46.3657 39.1838C46.0129 38.5363 45.8094 37.818 45.7702 37.0816C45.731 36.3453 45.8572 35.6095 46.1394 34.9282C46.4216 34.247 46.8527 33.6375 47.4012 33.1446C47.9496 32.6516 48.6014 32.2876 49.3088 32.0794L50.4562 31.7419C55.1812 30.348 55.1812 23.652 50.4562 22.2581L49.3088 21.9206C48.6014 21.7124 47.9496 21.3484 47.4012 20.8554C46.8527 20.3625 46.4216 19.753 46.1394 19.0718C45.8572 18.3905 45.731 17.6547 45.7702 16.9184C45.8094 16.182 46.0129 15.4637 46.3657 14.8162L46.9395 13.77C49.2952 9.43987 44.5601 4.70475 40.2334 7.06387L39.1838 7.63425C38.5363 7.98714 37.818 8.19062 37.0816 8.22979C36.3453 8.26896 35.6095 8.14281 34.9282 7.86059C34.247 7.57838 33.6375 7.14725 33.1446 6.59884C32.6516 6.05043 32.2876 5.39863 32.0794 4.69125L31.7419 3.54375ZM27 36.8888C24.3773 36.8888 21.8621 35.8469 20.0076 33.9924C18.1531 32.1379 17.1112 29.6227 17.1112 27C17.1112 24.3773 18.1531 21.8621 20.0076 20.0076C21.8621 18.1531 24.3773 17.1112 27 17.1112C29.6218 17.1112 32.1361 18.1527 33.99 20.0066C35.8439 21.8605 36.8854 24.3749 36.8854 26.9966C36.8854 29.6184 35.8439 32.1328 33.99 33.9866C32.1361 35.8405 29.6218 36.882 27 36.882V36.8888Z" fill="#3B4664"/>
</svg>
