<svg width="51" height="51" viewBox="0 0 51 51" fill="none" xmlns="http://www.w3.org/2000/svg">
<path d="M21.7337 1.27901L11.8137 17.4923C10.7203 19.2523 12.0003 21.5457 14.0803 21.5457H33.8937C35.9737 21.5457 37.2537 19.2523 36.1603 17.4923L26.267 1.27901C26.0313 0.88871 25.6987 0.56589 25.3016 0.341814C24.9045 0.117738 24.4563 0 24.0003 0C23.5444 0 23.0961 0.117738 22.699 0.341814C22.3019 0.56589 21.9694 0.88871 21.7337 1.27901V1.27901Z" fill="#3B4664"/>
<path d="M38.667 50.879C45.2944 50.879 50.667 45.5064 50.667 38.879C50.667 32.2516 45.2944 26.879 38.667 26.879C32.0396 26.879 26.667 32.2516 26.667 38.879C26.667 45.5064 32.0396 50.879 38.667 50.879Z" fill="#3B4664"/>
<path d="M2.66667 49.5457H18.6667C20.1333 49.5457 21.3333 48.3457 21.3333 46.879V30.879C21.3333 29.4123 20.1333 28.2123 18.6667 28.2123H2.66667C1.2 28.2123 0 29.4123 0 30.879V46.879C0 48.3457 1.2 49.5457 2.66667 49.5457Z" fill="#3B4664"/>
</svg>
