<svg width="14" height="48" viewBox="0 0 14 48" fill="none" xmlns="http://www.w3.org/2000/svg">
<path d="M13.4988 16.3L1.40277 17.816L0.970769 19.824L3.35077 20.256C4.89877 20.628 5.20677 21.184 4.87077 22.732L0.970769 41.04C-0.0492314 45.772 1.53077 48 5.23877 48C8.11877 48 11.4548 46.672 12.9708 44.844L13.4348 42.648C12.3828 43.576 10.8348 43.948 9.81477 43.948C8.36277 43.948 7.83877 42.928 8.20677 41.132L13.4988 16.3ZM13.8628 5.28C13.8628 6.68034 13.3065 8.02333 12.3163 9.01352C11.3261 10.0037 9.98311 10.56 8.58277 10.56C7.18243 10.56 5.83944 10.0037 4.84924 9.01352C3.85905 8.02333 3.30277 6.68034 3.30277 5.28C3.30277 3.87966 3.85905 2.53667 4.84924 1.54648C5.83944 0.556284 7.18243 0 8.58277 0C9.98311 0 11.3261 0.556284 12.3163 1.54648C13.3065 2.53667 13.8628 3.87966 13.8628 5.28Z" fill="#3B4664"/>
</svg>
