<svg width="138" height="138" viewBox="0 0 138 138" fill="none" xmlns="http://www.w3.org/2000/svg">
<path fill-rule="evenodd" clip-rule="evenodd" d="M40.6562 0.6625C47.9875 0.325 50.325 0.25 69 0.25C87.675 0.25 90.0125 0.33125 97.3375 0.6625C104.662 0.99375 109.662 2.1625 114.037 3.85625C118.619 5.5875 122.775 8.29375 126.212 11.7937C129.712 15.225 132.412 19.375 134.137 23.9625C135.837 28.3375 137 33.3375 137.337 40.65C137.675 47.9937 137.75 50.3312 137.75 69C137.75 87.675 137.669 90.0125 137.337 97.3437C137.006 104.656 135.837 109.656 134.137 114.031C132.412 118.619 129.708 122.776 126.212 126.212C122.775 129.712 118.619 132.412 114.037 134.137C109.662 135.837 104.662 137 97.35 137.337C90.0125 137.675 87.675 137.75 69 137.75C50.325 137.75 47.9875 137.669 40.6562 137.337C33.3437 137.006 28.3437 135.837 23.9687 134.137C19.3808 132.412 15.2239 129.708 11.7875 126.212C8.28987 122.779 5.58322 118.624 3.85625 114.037C2.1625 109.662 1 104.662 0.6625 97.35C0.325 90.0062 0.25 87.6687 0.25 69C0.25 50.325 0.33125 47.9875 0.6625 40.6625C0.99375 33.3375 2.1625 28.3375 3.85625 23.9625C5.58577 19.3755 8.29449 15.2207 11.7937 11.7875C15.2253 8.29063 19.3779 5.58402 23.9625 3.85625C28.3375 2.1625 33.3375 1 40.65 0.6625H40.6562ZM96.7812 13.0375C89.5312 12.7062 87.3562 12.6375 69 12.6375C50.6437 12.6375 48.4687 12.7062 41.2187 13.0375C34.5125 13.3437 30.875 14.4625 28.45 15.4062C25.2437 16.6562 22.95 18.1375 20.5437 20.5437C18.2628 22.7628 16.5074 25.4643 15.4062 28.45C14.4625 30.875 13.3437 34.5125 13.0375 41.2187C12.7062 48.4687 12.6375 50.6437 12.6375 69C12.6375 87.3562 12.7062 89.5312 13.0375 96.7812C13.3437 103.487 14.4625 107.125 15.4062 109.55C16.5062 112.531 18.2625 115.237 20.5437 117.456C22.7625 119.737 25.4687 121.494 28.45 122.594C30.875 123.537 34.5125 124.656 41.2187 124.962C48.4687 125.294 50.6375 125.362 69 125.362C87.3625 125.362 89.5312 125.294 96.7812 124.962C103.487 124.656 107.125 123.537 109.55 122.594C112.756 121.344 115.05 119.862 117.456 117.456C119.737 115.237 121.494 112.531 122.594 109.55C123.537 107.125 124.656 103.487 124.962 96.7812C125.294 89.5312 125.362 87.3562 125.362 69C125.362 50.6437 125.294 48.4687 124.962 41.2187C124.656 34.5125 123.537 30.875 122.594 28.45C121.344 25.2437 119.862 22.95 117.456 20.5437C115.237 18.2629 112.536 16.5076 109.55 15.4062C107.125 14.4625 103.487 13.3437 96.7812 13.0375V13.0375ZM60.2187 90.1937C65.1229 92.2352 70.5836 92.5107 75.6683 90.9733C80.753 89.4358 85.1462 86.1807 88.0976 81.764C91.0489 77.3473 92.3753 72.0429 91.8503 66.7569C91.3252 61.4709 88.9813 56.5311 85.2187 52.7812C82.8202 50.3842 79.9201 48.5488 76.7271 47.4072C73.5341 46.2655 70.1277 45.846 66.7531 46.1788C63.3785 46.5117 60.1197 47.5886 57.2113 49.3321C54.3028 51.0755 51.8171 53.4421 49.9331 56.2616C48.0491 59.081 46.8137 62.2831 46.3157 65.6372C45.8178 68.9914 46.0697 72.4143 47.0534 75.6595C48.037 78.9046 49.728 81.8913 52.0045 84.4045C54.281 86.9177 57.0864 88.8949 60.2187 90.1937ZM44.0125 44.0125C47.2939 40.7311 51.1895 38.1281 55.4769 36.3523C59.7642 34.5764 64.3594 33.6623 69 33.6623C73.6406 33.6623 78.2358 34.5764 82.5231 36.3523C86.8105 38.1281 90.7061 40.7311 93.9875 44.0125C97.2689 47.2939 99.8718 51.1895 101.648 55.4769C103.424 59.7642 104.338 64.3594 104.338 69C104.338 73.6406 103.424 78.2358 101.648 82.5231C99.8718 86.8105 97.2689 90.7061 93.9875 93.9875C87.3604 100.615 78.3721 104.338 69 104.338C59.6279 104.338 50.6396 100.615 44.0125 93.9875C37.3854 87.3604 33.6623 78.3721 33.6623 69C33.6623 59.6279 37.3854 50.6396 44.0125 44.0125V44.0125ZM112.175 38.925C112.988 38.1579 113.639 37.2355 114.089 36.2123C114.54 35.1892 114.78 34.0861 114.796 32.9683C114.813 31.8506 114.605 30.7409 114.184 29.7051C113.764 28.6692 113.14 27.7282 112.35 26.9377C111.559 26.1473 110.618 25.5235 109.582 25.1032C108.547 24.683 107.437 24.4748 106.319 24.4911C105.201 24.5074 104.098 24.7478 103.075 25.1981C102.052 25.6484 101.13 26.2993 100.362 27.1125C98.8707 28.6939 98.0539 30.7945 98.0856 32.9683C98.1173 35.1421 98.9949 37.218 100.532 38.7553C102.069 40.2925 104.145 41.1702 106.319 41.2019C108.493 41.2336 110.594 40.4168 112.175 38.925V38.925Z" fill="white"/>
</svg>
