<svg width="150" height="150" viewBox="0 0 150 150" fill="none" xmlns="http://www.w3.org/2000/svg">
<path fill-rule="evenodd" clip-rule="evenodd" d="M1.85495e-06 12.5318C1.85495e-06 9.20819 1.32031 6.02067 3.67049 3.6705C6.02066 1.32033 9.20817 1.67067e-05 12.5318 1.67067e-05H137.455C139.102 -0.00267342 140.733 0.319537 142.255 0.948199C143.778 1.57686 145.161 2.49963 146.327 3.66367C147.492 4.82772 148.416 6.21018 149.047 7.7319C149.677 9.25363 150.001 10.8847 150 12.5318V137.455C150.002 139.102 149.679 140.734 149.049 142.256C148.42 143.778 147.497 145.162 146.332 146.327C145.167 147.492 143.784 148.416 142.262 149.047C140.74 149.677 139.109 150.001 137.461 150H12.5318C10.8855 150 9.2554 149.676 7.73452 149.045C6.21365 148.415 4.83185 147.492 3.66807 146.327C2.5043 145.163 1.58135 143.78 0.951972 142.259C0.32259 140.738 -0.000893834 139.108 1.85495e-06 137.461V12.5318ZM59.3727 57.1909H79.6841V67.3909C82.6159 61.5273 90.1159 56.25 101.386 56.25C122.993 56.25 128.114 67.9296 128.114 89.3591V129.055H106.248V94.2409C106.248 82.0364 103.316 75.15 95.8704 75.15C85.5409 75.15 81.2454 82.575 81.2454 94.2409V129.055H59.3727V57.1909ZM21.8727 128.12H43.7455V56.25H21.8727V128.114V128.12ZM46.875 32.8091C46.9162 34.6819 46.583 36.544 45.8948 38.2862C45.2066 40.0285 44.1774 41.6157 42.8675 42.9548C41.5576 44.2938 39.9934 45.3578 38.2667 46.0841C36.5401 46.8105 34.6857 47.1847 32.8125 47.1847C30.9393 47.1847 29.0849 46.8105 27.3583 46.0841C25.6316 45.3578 24.0674 44.2938 22.7575 42.9548C21.4476 41.6157 20.4184 40.0285 19.7302 38.2862C19.042 36.544 18.7088 34.6819 18.75 32.8091C18.8309 29.1331 20.3481 25.635 22.9765 23.0638C25.6049 20.4926 29.1356 19.0529 32.8125 19.0529C36.4894 19.0529 40.0201 20.4926 42.6485 23.0638C45.2769 25.635 46.7941 29.1331 46.875 32.8091V32.8091Z" fill="white"/>
</svg>
