<svg width="38" height="54" viewBox="0 0 38 54" fill="none" xmlns="http://www.w3.org/2000/svg">
<path d="M18.6667 25.6667C16.8986 25.6667 15.2029 24.9643 13.9526 23.7141C12.7024 22.4638 12 20.7681 12 19C12 17.2319 12.7024 15.5362 13.9526 14.286C15.2029 13.0357 16.8986 12.3333 18.6667 12.3333C20.4348 12.3333 22.1305 13.0357 23.3807 14.286C24.631 15.5362 25.3333 17.2319 25.3333 19C25.3333 19.8755 25.1609 20.7424 24.8259 21.5512C24.4908 22.3601 23.9998 23.095 23.3807 23.7141C22.7617 24.3331 22.0267 24.8242 21.2179 25.1592C20.4091 25.4942 19.5421 25.6667 18.6667 25.6667ZM18.6667 0.333344C13.716 0.333344 8.96802 2.3 5.46734 5.80068C1.96666 9.30136 0 14.0493 0 19C0 33 18.6667 53.6667 18.6667 53.6667C18.6667 53.6667 37.3333 33 37.3333 19C37.3333 14.0493 35.3667 9.30136 31.866 5.80068C28.3653 2.3 23.6174 0.333344 18.6667 0.333344Z" fill="#3B4664"/>
</svg>
