<svg width="237" height="52" viewBox="0 0 237 52" fill="none" xmlns="http://www.w3.org/2000/svg">
<path d="M1.0975 11.272C1.0975 7.848 2.5855 5.16 5.5615 3.208C8.5375 1.256 11.9615 0.279998 15.8335 0.279998C20.7935 0.279998 25.1455 1.704 28.8895 4.552C30.7455 5.992 32.1855 7.912 33.2095 10.312C34.2335 12.68 34.7455 15.304 34.7455 18.184C34.7455 23.848 33.1295 28.456 29.8975 32.008C26.5375 35.624 22.3295 37.432 17.2735 37.432C16.1535 37.432 14.9695 37.288 13.7215 37C12.4735 36.712 11.4815 36.328 10.7455 35.848C9.5615 36.744 8.0415 37.192 6.1855 37.192C4.3615 37.192 2.9375 36.68 1.9135 35.656C0.8895 34.632 0.3775 33.32 0.3775 31.72C0.3775 27.944 3.2415 24.728 8.9695 22.072C9.1295 20.728 9.3535 18.92 9.6415 16.648C9.9615 14.344 10.2015 12.488 10.3615 11.08C10.5535 9.672 10.6815 8.744 10.7455 8.296C12.0575 7.464 13.5775 7.048 15.3055 7.048C16.1055 7.048 16.8735 7.128 17.6095 7.288L14.5855 27.784C14.2975 29.608 13.8975 31.128 13.3855 32.344C14.3775 32.6 15.1775 32.728 15.7855 32.728C19.4655 32.728 22.3135 31.336 24.3295 28.552C26.4095 25.64 27.4495 22.12 27.4495 17.992C27.4495 12.712 25.5455 8.92 21.7375 6.616C19.6255 5.336 17.3055 4.696 14.7775 4.696C11.5455 4.696 8.9855 5.576 7.0975 7.336C6.0095 8.328 5.4655 9.528 5.4655 10.936C5.4655 11.672 5.6895 12.376 6.1375 13.048C6.5855 13.688 7.3695 14.056 8.4895 14.152L8.0095 17.272C5.6735 17.144 3.9295 16.504 2.7775 15.352C1.6575 14.168 1.0975 12.808 1.0975 11.272ZM3.9295 31.096C3.9295 32.248 4.4735 32.824 5.5615 32.824C6.0095 32.824 6.4735 32.536 6.9535 31.96C7.4655 31.352 7.8175 30.408 8.0095 29.128L8.4415 26.152C5.4335 27.848 3.9295 29.496 3.9295 31.096ZM57.6003 37.24C54.6563 37.24 52.7043 36.216 51.7443 34.168C50.0803 36.248 47.9363 37.288 45.3123 37.288C42.7203 37.288 40.5283 36.408 38.7363 34.648C36.9763 32.888 36.0963 30.568 36.0963 27.688C36.0963 23.496 37.3283 20.152 39.7923 17.656C42.2563 15.16 45.3763 13.912 49.1523 13.912C49.2483 13.912 49.3443 13.912 49.4403 13.912C51.0403 13.912 52.5123 14.184 53.8563 14.728C54.7203 14.184 55.7603 13.912 56.9763 13.912C58.2243 13.912 59.1203 14.072 59.6643 14.392C59.3763 16.76 59.0723 19.096 58.7523 21.4C58.4323 23.672 58.2083 25.288 58.0803 26.248C57.7923 28.424 57.6483 29.992 57.6483 30.952C57.6483 32.232 58.1603 32.872 59.1843 32.872C59.9843 32.872 60.8323 32.344 61.7283 31.288C62.6243 30.2 63.4083 28.504 64.0803 26.2C65.0083 27.032 65.6483 27.96 66.0003 28.984C65.0723 32.024 63.8243 34.168 62.2563 35.416C60.6883 36.632 59.1363 37.24 57.6003 37.24ZM49.8723 17.656C47.8243 17.656 46.1923 18.44 44.9763 20.008C43.7923 21.544 43.0883 23.848 42.8643 26.92C42.8323 27.208 42.8163 27.48 42.8163 27.736C42.8163 29.304 43.1843 30.552 43.9203 31.48C44.6883 32.408 45.6643 32.872 46.8483 32.872C48.8643 32.872 50.3843 31.448 51.4083 28.6L52.5603 18.232C51.6323 17.848 50.7363 17.656 49.8723 17.656ZM76.6971 20.2C76.6971 18.792 76.0411 18.088 74.7291 18.088C73.4491 18.088 72.4251 18.92 71.6571 20.584C75.1131 23.304 76.8411 26.36 76.8411 29.752C76.8411 32.216 76.1531 34.088 74.7771 35.368C73.4011 36.648 71.6731 37.288 69.5931 37.288C67.5131 37.288 65.9931 36.648 65.0331 35.368C64.0731 34.056 63.5931 32.408 63.5931 30.424C63.5931 29.816 63.6091 29.368 63.6411 29.08L65.3211 14.44C66.4731 14.088 67.6411 13.912 68.8251 13.912C70.7771 13.912 71.7531 14.632 71.7531 16.072V16.168C73.0331 14.664 74.6651 13.912 76.6491 13.912C78.0891 13.912 79.2091 14.248 80.0091 14.92C80.8091 15.56 81.2091 16.424 81.2091 17.512C81.2091 18.6 80.7931 19.496 79.9611 20.2C79.1611 20.872 78.1051 21.208 76.7931 21.208C76.7291 21.208 76.6651 21.208 76.6011 21.208C76.6651 20.856 76.6971 20.52 76.6971 20.2ZM73.7211 29.512C73.7211 27.656 72.7611 25.8 70.8411 23.944C70.2651 28.552 69.9771 30.872 69.9771 30.904C69.9771 32.248 70.5211 32.92 71.6091 32.92C73.0171 32.92 73.7211 31.784 73.7211 29.512ZM88.7504 37.336C86.7984 37.336 85.2624 36.792 84.1424 35.704C83.0224 34.584 82.4624 33.064 82.4624 31.144C82.4624 30.632 83.3264 23.032 85.0544 8.344C85.5024 4.568 86.7024 2.184 88.6544 1.192C89.5504 0.711998 90.6224 0.471998 91.8704 0.471998C96.0944 0.471998 98.2064 2.424 98.2064 6.328C98.2064 6.648 98.1904 6.984 98.1584 7.336C97.8384 11.624 95.1504 15.992 90.0944 20.44C89.9344 22.008 89.7584 23.528 89.5664 25C89.1824 28.296 88.9904 30.12 88.9904 30.472C88.9904 32.136 89.7104 32.968 91.1504 32.968C92.7184 32.968 94.1744 32.072 95.5184 30.28C96.8944 28.456 97.9504 26.136 98.6864 23.32C98.9744 23.416 99.3744 23.688 99.8864 24.136C100.398 24.552 100.75 24.92 100.942 25.24C100.43 27.896 99.2784 30.44 97.4864 32.872C96.5904 34.12 95.4544 35.144 94.0784 35.944C92.5104 36.872 90.7344 37.336 88.7504 37.336ZM90.6224 15.64C93.5664 12.408 95.0384 9.512 95.0384 6.952C95.0384 5.416 94.4624 4.648 93.3104 4.648C92.5744 4.712 92.0784 5.192 91.8224 6.088C91.5984 6.984 91.3744 8.44 91.1504 10.456C90.9584 12.472 90.8304 13.72 90.7664 14.2L90.6224 15.64ZM100.638 1.672C101.374 0.903997 102.27 0.519998 103.326 0.519998C104.382 0.519998 105.278 0.903997 106.014 1.672C106.782 2.408 107.166 3.304 107.166 4.36C107.166 5.416 106.782 6.312 106.014 7.048C105.278 7.784 104.382 8.152 103.326 8.152C102.27 8.152 101.374 7.784 100.638 7.048C99.9023 6.312 99.5343 5.416 99.5343 4.36C99.5343 3.304 99.9023 2.408 100.638 1.672ZM98.6703 15.736C98.9903 15.16 99.5983 14.728 100.494 14.44C101.39 14.12 102.27 13.96 103.134 13.96C104.03 13.96 104.814 14.072 105.486 14.296C104.238 23.928 103.614 28.792 103.614 28.888C103.454 29.528 103.374 30.072 103.374 30.52C103.374 30.936 103.406 31.304 103.47 31.624C103.598 32.456 104.174 32.872 105.198 32.872C106.254 32.872 107.214 32.2 108.078 30.856C108.974 29.48 109.646 27.928 110.094 26.2C110.318 26.328 110.67 26.712 111.15 27.352C111.63 27.992 111.918 28.472 112.014 28.792C111.374 31.352 110.286 33.416 108.75 34.984C107.214 36.552 105.374 37.336 103.23 37.336C101.086 37.336 99.4863 36.808 98.4303 35.752C97.4063 34.696 96.8943 33.336 96.8943 31.672C96.8943 31.32 96.9103 30.952 96.9423 30.568L98.6703 15.736ZM121.78 31.624L122.932 20.92C122.932 20.056 122.708 19.336 122.26 18.76C121.812 18.184 121.06 17.896 120.004 17.896C118.98 17.896 118.1 18.36 117.364 19.288C116.66 20.184 116.212 21.32 116.02 22.696C114.868 31.464 114.26 36.232 114.196 37H107.716L110.356 14.392C111.7 14.04 112.724 13.864 113.428 13.864C115.572 13.864 116.692 14.648 116.788 16.216C118.356 14.68 120.228 13.912 122.404 13.912C124.612 13.912 126.34 14.456 127.588 15.544C128.836 16.632 129.46 18.008 129.46 19.672C129.46 20.12 129.364 20.968 129.172 22.216C128.436 27.08 128.068 29.912 128.068 30.712C128.068 32.184 128.564 32.92 129.556 32.92C131.732 32.92 133.38 30.648 134.5 26.104C135.588 27.256 136.244 28.168 136.468 28.84C134.772 34.472 131.828 37.288 127.636 37.288C125.652 37.288 124.18 36.68 123.22 35.464C122.26 34.248 121.78 32.968 121.78 31.624ZM145.902 13.912C147.662 13.912 149.278 14.2 150.75 14.776C151.742 14.168 152.782 13.864 153.87 13.864C154.958 13.864 155.822 14.008 156.462 14.296L154.734 27.832C157.102 26.008 158.894 24.344 160.11 22.84L161.502 25.768C159.678 27.688 157.246 29.736 154.206 31.912L152.91 41.944C152.558 44.952 151.566 47.256 149.934 48.856C148.334 50.488 146.254 51.304 143.694 51.304C142.222 51.304 140.782 50.824 139.374 49.864C137.902 48.84 137.166 47.192 137.166 44.92C137.166 42.136 138.494 39.592 141.15 37.288C138.878 37.128 136.926 36.184 135.294 34.456C133.662 32.728 132.846 30.472 132.846 27.688C132.846 23.496 134.078 20.152 136.542 17.656C139.006 15.16 142.126 13.912 145.902 13.912ZM146.622 17.656C144.574 17.656 142.942 18.44 141.726 20.008C140.542 21.544 139.838 23.848 139.614 26.92C139.582 27.208 139.566 27.48 139.566 27.736C139.566 29.304 139.934 30.552 140.67 31.48C141.438 32.408 142.414 32.872 143.598 32.872C145.614 32.872 147.134 31.464 148.158 28.648L149.358 18.232C148.366 17.848 147.454 17.656 146.622 17.656ZM140.862 44.2C140.862 45.064 141.102 45.736 141.582 46.216C142.094 46.728 142.67 46.984 143.31 46.984C145.102 46.984 146.142 45.848 146.43 43.576L147.246 36.376C142.99 38.904 140.862 41.512 140.862 44.2ZM192.076 5.992C191.564 5.768 191.068 5.656 190.588 5.656C190.108 5.656 189.628 5.96 189.148 6.568C188.668 7.176 188.348 8.056 188.188 9.208L185.788 26.008C189.82 24.248 192.396 22.936 193.516 22.072L195.34 25.24C194.38 25.976 193.228 26.632 191.884 27.208C190.54 27.784 189.244 28.328 187.996 28.84C186.748 29.32 185.82 29.688 185.212 29.944L183.628 41.176C183.212 44.248 182.108 46.504 180.316 47.944C178.556 49.416 176.604 50.152 174.46 50.152C172.348 50.152 170.668 49.368 169.42 47.8C168.172 46.264 167.548 44.536 167.548 42.616C167.548 37.592 171.228 33.128 178.588 29.224L179.068 25.336C179.676 19.832 180.3 15.048 180.94 10.984C179.116 11.72 177.196 12.088 175.18 12.088C173.196 12.088 171.58 11.544 170.332 10.456C169.116 9.368 168.508 7.944 168.508 6.184C168.508 4.424 169.132 3.048 170.38 2.056C171.66 1.032 173.26 0.519998 175.18 0.519998C176.364 0.519998 178.06 0.887998 180.268 1.624C182.508 2.36 184.236 2.728 185.452 2.728C187.628 2.728 189.452 2.168 190.924 1.048C191.724 2.168 192.124 3.496 192.124 5.032C192.124 5.352 192.108 5.672 192.076 5.992ZM173.26 7.48C173.26 7.96 173.516 8.376 174.028 8.728C174.572 9.08 175.372 9.256 176.428 9.256C177.516 9.256 178.924 8.776 180.652 7.816C179.404 7.528 178.124 7.208 176.812 6.856C175.5 6.472 174.716 6.28 174.46 6.28C173.66 6.28 173.26 6.68 173.26 7.48ZM178.06 33.4C173.484 36.152 171.196 39.064 171.196 42.136C171.196 43 171.42 43.736 171.868 44.344C172.38 45.048 173.02 45.4 173.788 45.4C174.588 45.4 175.276 45.16 175.852 44.68C176.428 44.2 176.78 43.432 176.908 42.376L178.06 33.4ZM201.723 13.912C204.667 13.912 207.115 14.856 209.067 16.744C211.051 18.632 212.043 20.936 212.043 23.656C212.043 27.784 210.827 31.096 208.395 33.592C205.995 36.056 203.083 37.288 199.659 37.288C196.235 37.288 193.515 36.312 191.499 34.36C189.515 32.408 188.523 29.992 188.523 27.112C188.523 23.08 189.755 19.88 192.219 17.512C194.715 15.112 197.883 13.912 201.723 13.912ZM200.763 17.8C199.259 17.8 197.995 18.664 196.971 20.392C195.947 22.12 195.387 24.296 195.291 26.92C195.291 28.776 195.659 30.312 196.395 31.528C197.163 32.744 198.315 33.352 199.851 33.352C201.387 33.352 202.667 32.504 203.691 30.808C204.747 29.112 205.275 27.176 205.275 25C205.275 22.824 204.907 21.096 204.171 19.816C203.435 18.472 202.299 17.8 200.763 17.8ZM228.148 13.864C230.452 13.864 232.436 14.808 234.1 16.696C235.764 18.584 236.596 20.792 236.596 23.32C236.596 23.672 236.58 24.04 236.548 24.424C236.196 28.616 234.788 31.816 232.324 34.024C229.86 36.2 226.644 37.288 222.676 37.288C221.076 37.224 219.684 36.936 218.5 36.424C217.316 35.912 216.436 35.272 215.86 34.504C214.772 33.096 214.228 31.848 214.228 30.76C214.228 29.64 214.388 27.848 214.708 25.384C215.38 20.328 216.34 12.152 217.588 0.855999C218.26 0.599998 219.156 0.471998 220.276 0.471998C222.836 0.471998 224.116 1.208 224.116 2.68L222.484 15.448C223.988 14.392 225.876 13.864 228.148 13.864ZM220.708 30.424C220.708 31.16 220.98 31.784 221.524 32.296C222.1 32.776 222.884 33.016 223.876 33.016C225.508 33.016 226.852 32.264 227.908 30.76C229.188 28.936 229.828 26.568 229.828 23.656C229.828 22.248 229.508 21 228.868 19.912C228.228 18.824 227.236 18.28 225.892 18.28C224.068 18.28 222.676 19.368 221.716 21.544L221.332 24.424C220.916 27.656 220.708 29.656 220.708 30.424Z" fill="#3B4664"/>
</svg>
