<svg width="64" height="64" viewBox="0 0 64 64" fill="none" xmlns="http://www.w3.org/2000/svg">
<path d="M56.8889 64H24.8889C23.0029 64 21.1942 63.2508 19.8606 61.9172C18.527 60.5836 17.7778 58.7749 17.7778 56.8889V42.6667H24.8889V56.8889H56.8889V7.11111H24.8889V21.3333H17.7778V7.11111C17.7778 5.22513 18.527 3.41639 19.8606 2.0828C21.1942 0.749204 23.0029 0 24.8889 0H56.8889C58.7749 0 60.5836 0.749204 61.9172 2.0828C63.2508 3.41639 64 5.22513 64 7.11111V56.8889C64 58.7749 63.2508 60.5836 61.9172 61.9172C60.5836 63.2508 58.7749 64 56.8889 64ZM32 46.2222V35.5556H0V28.4444H32V17.7778L49.7778 32L32 46.2222Z" fill="white"/>
</svg>
