<svg width="57" height="55" viewBox="0 0 57 55" fill="none" xmlns="http://www.w3.org/2000/svg">
<path d="M54.9534 46.5324L41.5077 33.3762C43.6038 30.0099 44.7094 26.1427 44.7028 22.2009C44.7028 10.3049 34.1675 2.8151e-07 22.0098 2.8151e-07C19.1193 -0.000457034 16.257 0.556274 13.5865 1.63839C10.9159 2.72051 8.48938 4.30682 6.44549 6.30671C4.40159 8.30659 2.78038 10.6809 1.67445 13.2939C0.568515 15.907 -0.000467091 18.7077 2.87705e-07 21.5359C2.87705e-07 33.4284 10.5353 43.7368 22.6894 43.7368C26.5853 43.7402 30.4114 42.7258 33.7726 40.7985L47.2895 54.0313C47.9251 54.6516 48.7862 55 49.684 55C50.5818 55 51.4429 54.6516 52.0786 54.0313L55.4338 50.7483C56.7538 49.4567 56.2734 47.824 54.9534 46.5324ZM6.77445 21.5359C6.77398 19.578 7.16771 17.6391 7.93315 15.8301C8.69859 14.021 9.82075 12.3772 11.2355 10.9926C12.6503 9.60794 14.33 8.50957 16.1787 7.76018C18.0274 7.0108 20.0088 6.6251 22.0098 6.6251C30.4281 6.6251 37.9284 13.9604 37.9284 22.2009C37.9274 26.1552 36.3216 29.9473 33.4639 32.7434C30.6063 35.5395 26.7307 37.1108 22.6894 37.1117C14.2712 37.1082 6.77445 29.7694 6.77445 21.5359Z" fill="white"/>
</svg>
