<svg width="64" height="64" viewBox="0 0 64 64" fill="none" xmlns="http://www.w3.org/2000/svg">
<path d="M56.1437 49.4944L44.0509 37.4016C45.9361 34.3074 46.9305 30.7528 46.9245 27.1296C46.9245 16.1952 37.4493 6.72321 26.5149 6.72321C23.9153 6.72279 21.341 7.23452 18.9391 8.22917C16.5373 9.22382 14.3549 10.6819 12.5167 12.5201C10.6784 14.3584 9.22034 16.5408 8.22569 18.9426C7.23104 21.3445 6.71931 23.9187 6.71973 26.5184C6.71973 37.4496 16.1949 46.9248 27.1261 46.9248C30.63 46.9279 34.0711 45.9956 37.0941 44.224L49.2509 56.3872C49.8226 56.9574 50.5971 57.2776 51.4045 57.2776C52.212 57.2776 52.9864 56.9574 53.5581 56.3872L56.5757 53.3696C57.7629 52.1824 57.3309 50.6816 56.1437 49.4944ZM12.8125 26.5184C12.8121 24.7187 13.1662 22.9366 13.8546 21.2737C14.5431 19.6109 15.5523 18.1 16.8247 16.8273C18.0972 15.5546 19.6078 14.545 21.2705 13.8561C22.9332 13.1673 24.7152 12.8128 26.5149 12.8128C34.0861 12.8128 40.8317 19.5552 40.8317 27.1296C40.8309 30.7643 39.3866 34.2499 36.8165 36.82C34.2464 39.3901 30.7608 40.8344 27.1261 40.8352C19.5549 40.832 12.8125 34.0864 12.8125 26.5184Z" fill="#DAA520"/>
</svg>
