<svg width="48" height="56" viewBox="0 0 48 56" fill="none" xmlns="http://www.w3.org/2000/svg">
<path d="M48 45.3333V48H0V45.3333L5.33333 40V24C5.33333 15.7333 10.7467 8.45333 18.6667 6.10667V5.33333C18.6667 3.91885 19.2286 2.56229 20.2288 1.5621C21.229 0.561903 22.5855 0 24 0C25.4145 0 26.771 0.561903 27.7712 1.5621C28.7714 2.56229 29.3333 3.91885 29.3333 5.33333V6.10667C37.2533 8.45333 42.6667 15.7333 42.6667 24V40L48 45.3333ZM29.3333 50.6667C29.3333 52.0812 28.7714 53.4377 27.7712 54.4379C26.771 55.4381 25.4145 56 24 56C22.5855 56 21.229 55.4381 20.2288 54.4379C19.2286 53.4377 18.6667 52.0812 18.6667 50.6667" fill="white"/>
</svg>
