<svg width="300" height="60" viewBox="0 0 300 60" fill="none" xmlns="http://www.w3.org/2000/svg">
<path fill-rule="evenodd" clip-rule="evenodd" d="M0 30.1675C0 45.0825 10.8325 57.485 25 60V38.3325H17.5V30H25V23.3325C25 15.8325 29.8325 11.6675 36.6675 11.6675C38.8325 11.6675 41.1675 12 43.3325 12.3325V20H39.5C35.8325 20 35 21.8325 35 24.1675V30H43L41.6675 38.3325H35V60C49.1675 57.485 60 45.085 60 30.1675C60 13.575 46.5 0 30 0C13.5 0 0 13.575 0 30.1675Z" fill="black"/>
<path d="M182 5.00058V55.0001C182 57.8375 180.108 60 177.625 60H173.25V14.623L147 36.1727L120.75 14.623V60H116.375C113.892 60 112 57.8375 112 55.0001V5.00058C112 3.58059 112.468 2.3306 113.253 1.44561C113.662 0.977937 114.15 0.609016 114.686 0.360783C115.222 0.112549 115.797 -0.00992951 116.375 0.000628931H117.834L147 24.1679L176.166 0.000628931H177.625C178.868 0.000628931 179.961 0.535624 180.747 1.44561C181.532 2.3306 182 3.58059 182 5.00058Z" fill="black"/>
<path fill-rule="evenodd" clip-rule="evenodd" d="M242.5 7.09501C242.5 5.87634 242.984 4.70758 243.846 3.84585C244.708 2.98412 245.876 2.50001 247.095 2.50001H292.9C293.504 2.49902 294.102 2.61716 294.66 2.84767C295.219 3.07818 295.726 3.41653 296.153 3.84335C296.58 4.27016 296.919 4.77707 297.15 5.33503C297.382 5.893 297.5 6.49107 297.5 7.09501V52.9C297.501 53.5041 297.382 54.1023 297.151 54.6606C296.921 55.2188 296.582 55.726 296.155 56.1533C295.728 56.5805 295.221 56.9194 294.663 57.1505C294.105 57.3816 293.507 57.5003 292.903 57.5H247.095C246.491 57.5 245.894 57.3811 245.336 57.15C244.778 56.9189 244.272 56.5802 243.845 56.1533C243.418 55.7263 243.08 55.2195 242.849 54.6617C242.618 54.1039 242.5 53.5061 242.5 52.9025V7.09501ZM264.27 23.47H271.718V27.21C272.793 25.06 275.543 23.125 279.675 23.125C287.598 23.125 289.475 27.4075 289.475 35.265V49.82H281.458V37.055C281.458 32.58 280.383 30.055 277.653 30.055C273.865 30.055 272.29 32.7775 272.29 37.055V49.82H264.27V23.47ZM250.52 49.4775H258.54V23.125H250.52V49.475V49.4775ZM259.688 14.53C259.703 15.2167 259.58 15.8995 259.328 16.5383C259.076 17.1771 258.698 17.7591 258.218 18.2501C257.738 18.7411 257.164 19.1312 256.531 19.3975C255.898 19.6639 255.218 19.8011 254.531 19.8011C253.844 19.8011 253.164 19.6639 252.531 19.3975C251.898 19.1312 251.325 18.7411 250.844 18.2501C250.364 17.7591 249.987 17.1771 249.734 16.5383C249.482 15.8995 249.36 15.2167 249.375 14.53C249.405 13.1821 249.961 11.8995 250.925 10.9567C251.888 10.014 253.183 9.48605 254.531 9.48605C255.879 9.48605 257.174 10.014 258.138 10.9567C259.102 11.8995 259.658 13.1821 259.688 14.53Z" fill="black"/>
</svg>
