<svg width="54" height="55" viewBox="0 0 54 55" fill="none" xmlns="http://www.w3.org/2000/svg">
<path d="M26.6667 49.3333C21.716 49.3333 16.968 47.3666 13.4673 43.866C9.96666 40.3653 8 35.6173 8 30.6666C8 25.7159 9.96666 20.968 13.4673 17.4673C16.968 13.9666 21.716 12 26.6667 12C31.6174 12 36.3653 13.9666 39.866 17.4673C43.3667 20.968 45.3333 25.7159 45.3333 30.6666C45.3333 35.6173 43.3667 40.3653 39.866 43.866C36.3653 47.3666 31.6174 49.3333 26.6667 49.3333ZM26.6667 6.66663C20.3015 6.66663 14.197 9.19519 9.6961 13.6961C5.19523 18.1969 2.66667 24.3014 2.66667 30.6666C2.66667 37.0318 5.19523 43.1363 9.6961 47.6372C14.197 52.1381 20.3015 54.6666 26.6667 54.6666C33.0319 54.6666 39.1364 52.1381 43.6372 47.6372C48.1381 43.1363 50.6667 37.0318 50.6667 30.6666C50.6667 24.3014 48.1381 18.1969 43.6372 13.6961C39.1364 9.19519 33.0319 6.66663 26.6667 6.66663ZM28 17.3333H24V33.3333L36.6667 40.9333L38.6667 37.6533L28 31.3333V17.3333ZM15.68 5.03996L12.2667 0.959961L0 11.2266L3.44 15.3066L15.68 5.03996ZM53.3333 11.2533L41.0667 0.959961L37.6267 5.03996L49.8933 15.3333L53.3333 11.2533Z" fill="#3B4664"/>
</svg>
