<svg width="40" height="40" viewBox="0 0 40 40" fill="none" xmlns="http://www.w3.org/2000/svg">
<path d="M37.5 17.1449H7.85L16.925 4.68887C17.3493 4.10545 17.5535 3.35328 17.4926 2.59785C17.4316 1.84241 17.1105 1.14559 16.6 0.660661C16.0895 0.175738 15.4313 -0.0575612 14.7702 0.0120889C14.1091 0.081739 13.4993 0.448633 13.075 1.03206L0.575 18.1734C0.490902 18.3097 0.415698 18.453 0.35 18.6019C0.35 18.7448 0.35 18.8305 0.175 18.9733C0.0616841 19.3009 0.0023528 19.6496 0 20.0018C0.0023528 20.354 0.0616841 20.7027 0.175 21.0303C0.175 21.1731 0.175 21.2588 0.35 21.4017C0.415698 21.5506 0.490902 21.6939 0.575 21.8302L13.075 38.9715C13.3101 39.294 13.6044 39.5534 13.9371 39.7311C14.2698 39.9089 14.6327 40.0007 15 40C15.5841 40.0013 16.1502 39.7688 16.6 39.3429C16.8531 39.1031 17.0624 38.8085 17.2158 38.4761C17.3692 38.1437 17.4637 37.78 17.4938 37.4059C17.524 37.0317 17.4893 36.6544 17.3917 36.2955C17.2941 35.9367 17.1355 35.6034 16.925 35.3147L7.85 22.8587H37.5C38.163 22.8587 38.7989 22.5577 39.2678 22.0219C39.7366 21.4861 40 20.7595 40 20.0018C40 19.2441 39.7366 18.5174 39.2678 17.9817C38.7989 17.4459 38.163 17.1449 37.5 17.1449Z" fill="black"/>
</svg>
