<svg width="64" height="64" viewBox="0 0 64 64" fill="none" xmlns="http://www.w3.org/2000/svg">
<path d="M31.9998 10.6667C34.8288 10.6667 37.5419 11.7905 39.5423 13.7909C41.5427 15.7913 42.6665 18.5044 42.6665 21.3334C42.6665 24.1623 41.5427 26.8754 39.5423 28.8758C37.5419 30.8762 34.8288 32 31.9998 32C29.1709 32 26.4578 30.8762 24.4574 28.8758C22.457 26.8754 21.3332 24.1623 21.3332 21.3334C21.3332 18.5044 22.457 15.7913 24.4574 13.7909C26.4578 11.7905 29.1709 10.6667 31.9998 10.6667V10.6667ZM31.9998 37.3334C43.7865 37.3334 53.3332 42.1067 53.3332 48V53.3334H10.6665V48C10.6665 42.1067 20.2132 37.3334 31.9998 37.3334Z" fill="white"/>
</svg>
